<?xml version="1.0" encoding="utf-8"?>
<svg version="1.1" xmlns:xlink="http://www.w3.org/1999/xlink" width="32px" height="32px" xmlns="http://www.w3.org/2000/svg">
  <defs>
    <mask fill="white" id="clip1714">
      <path d="M 36 51.5  C 27.3975 51.5  20.5 44.6025  20.5 36  L 20.5 36  C 20.5 27.3975  27.3975 20.5  36 20.5  L 36 20.5  C 44.6025 20.5  51.5 27.3975  51.5 36  L 51.5 36  C 51.5 44.6025  44.6025 51.5  36 51.5  L 36 51.5  " fill-rule="evenodd" />
    </mask>
  </defs>
  <g transform="matrix(1 0 0 1 -20 -20 )">
    <path d="M 20 20  L 52 20  L 52 52  L 20 52  L 20 20  " fill-rule="nonzero" fill="#cccccc" stroke="none" mask="url(#clip1714)" />
    <path d="M 22 22  L 50 22  L 50 50  L 22 50  L 22 22  " fill-rule="nonzero" fill="#ffffff" stroke="none" mask="url(#clip1714)" />
    <path d="M 39.04 29.6  C 37.696 29.6  36.64 28.544  36.64 27.2  C 36.64 25.856  37.696 24.8  39.04 24.8  C 40.384 24.8  41.44 25.856  41.44 27.2  C 41.44 28.544  40.384 29.6  39.04 29.6  " fill-rule="nonzero" fill="#cccccc" stroke="none" mask="url(#clip1714)" />
    <path d="M 23 49  L 23 34.7  L 29.5 28.2  L 38.6 33.4  L 43.8 32.1  L 49 33.4  L 49 49  L 23 49  " fill-rule="nonzero" fill="#169bd5" stroke="none" mask="url(#clip1714)" />
    <path d="M 36 51.5  C 27.3975 51.5  20.5 44.6025  20.5 36  L 20.5 36  C 20.5 27.3975  27.3975 20.5  36 20.5  L 36 20.5  C 44.6025 20.5  51.5 27.3975  51.5 36  L 51.5 36  C 51.5 44.6025  44.6025 51.5  36 51.5  L 36 51.5  Z " stroke-width="1" stroke="#f5f5f5" fill="none" />
  </g>
</svg>