<?xml version="1.0" encoding="utf-8"?>
<svg version="1.1" xmlns:xlink="http://www.w3.org/1999/xlink" width="24px" height="24px" xmlns="http://www.w3.org/2000/svg">
  <g transform="matrix(1 0 0 1 -1810 -38 )">
    <path d="M 24 12.0000000046875  C 24 5.37000001665234  18.630000408749 0  12.000000883081 0  C 5.37000138553789 0  0 5.37000001665234  0 12.0000000046875  C -0.00278962967940779 17.1664902454178  3.30348333022184 21.7540772741749  8.20560116527555 23.385599990865  C 8.80560111127775 23.4899999908242  9.03000110396382 23.1299999909648  9.03000110396382 22.8144000004631  C 9.03000110396382 22.5300000005742  9.01440109574901 21.5855999915681  9.01440109574901 20.5800000107109  C 6.00000131055895 21.1356000198689  5.22000137794359 19.8456000109978  4.98000140516771 19.1699999925117  C 4.84440142462746 18.8243999926467  4.26000145871507 17.7600000024375  3.75000150601944 17.4743999931741  C 3.3300015466304 17.2499999838867  2.7300015725032 16.6944000028537  3.73440149780464 16.6800000028594  C 4.68000141810411 16.6643999934905  5.35440137732308 17.5499999931445  5.58000135116991 17.9099999930039  C 6.66000127084887 19.7243999922952  8.38560115188871 19.2144000018694  9.07440111003673 18.8999999926172  C 9.18000111155812 18.1200000022969  9.49440106942577 17.5955999837517  9.84000104372304 17.2956000026189  C 7.17000125166949 16.9955999933611  4.38000145916551 15.9600000031406  4.38000145916551 11.3700000049336  C 4.38000145916551 10.0644000148186  4.84440142462746 8.98559999649  5.61000135831377 8.14440000619359  C 5.49000135786333 7.84439999693578  5.07000139847429 6.61440000679125  5.73000135876421 4.96439999806078  C 5.73000135876421 4.96439999806078  6.73440128406564 4.6499999888086  9.03000110396382 6.19559999757985  C 10.0068764826393 5.92447284732192  11.016200379762 5.78801224991607  12.0300008902248 5.79000000711328  C 13.0500008237411 5.79000000711328  14.0700007291323 5.92440001643578  15.0300006483608 6.19440001633031  C 17.3244004870983 4.63440000756469  18.3300003935605 4.96560000743531  18.3300004216854 4.96560000743531  C 18.9900003819754 6.61560001616578  18.5700003944613 7.84560000631031  18.4500003940109 8.14560001556813  C 19.2144003465364 8.985600024615  19.6800002931592 10.0500000148242  19.6800003212841 11.3700000049336  C 19.6800003212841 15.9756000125095  16.8756005298511 16.9955999933611  14.2056007096726 17.2956000026189  C 14.6400006679907 17.6700000024727  15.0156006494318 18.3900000021914  15.0156006494318 19.5155999923767  C 15.0156006494318 21.119999982375  15.000000641217 22.4099999912461  15.000000669342 22.8156000098377  C 15.000000669342 23.1300000190898  15.2256006431888 23.5044000189436  15.825600589191 23.3844000096155  C 20.7098811445575 21.7353264223609  23.9986039282728 17.1551568229125  24 12.0000000046875  Z " fill-rule="nonzero" fill="#000000" stroke="none" transform="matrix(1 0 0 1 1810 38 )" />
  </g>
</svg>