<?xml version="1.0" encoding="utf-8"?>
<svg version="1.1" xmlns:xlink="http://www.w3.org/1999/xlink" width="144px" height="188px" xmlns="http://www.w3.org/2000/svg">
  <g transform="matrix(1 0 0 1 -478 -69 )">
    <path d="M 479 77  A 7 7 0 0 1 486 70 L 614 70  A 7 7 0 0 1 621 77 L 621 249  A 7 7 0 0 1 614 256 L 486 256  A 7 7 0 0 1 479 249 L 479 77  Z " fill-rule="nonzero" fill="#ffffff" stroke="none" />
    <path d="M 478.5 77  A 7.5 7.5 0 0 1 486 69.5 L 614 69.5  A 7.5 7.5 0 0 1 621.5 77 L 621.5 249  A 7.5 7.5 0 0 1 614 256.5 L 486 256.5  A 7.5 7.5 0 0 1 478.5 249 L 478.5 77  Z " stroke-width="1" stroke="#000000" fill="none" stroke-opacity="0.0980392156862745" />
  </g>
</svg>