<?xml version="1.0" encoding="utf-8"?>
<svg version="1.1" xmlns:xlink="http://www.w3.org/1999/xlink" width="14px" height="14px" xmlns="http://www.w3.org/2000/svg">
  <g transform="matrix(1 0 0 1 -26 -23 )">
    <path d="M 1.658125 6.251875  C 1.658125 8.798125  3.71875 10.85875  6.251875 10.85875  C 7.249375 10.85875  8.2075 10.54375  9.008125 9.94  L 9.54625 9.54625  L 9.94 9.008125  C 10.54375 8.2075  10.85875 7.249375  10.85875 6.251875  C 10.85875 3.71875  8.798125 1.645  6.251875 1.645  C 3.705625 1.645  1.658125 3.71875  1.658125 6.251875  Z M 13.549375 13.575625  C 13.391875 13.74625  13.16875 13.825  12.945625 13.825  C 12.7225 13.825  12.5125 13.74625  12.341875 13.575625  L 9.900625 11.12125  C 8.89 11.8825  7.63 12.32875  6.265 12.32875  C 2.891875 12.341875  0.174999999999999 9.611875  0.174999999999999 6.251875  C 0.175 2.891875  2.891875 0.175  6.251875 0.175  C 9.611875 0.175  12.32875 2.891875  12.32875 6.251875  C 12.32875 7.616875  11.8825 8.876875  11.12125 9.8875  L 13.575625 12.341875  C 13.90375 12.67  13.90375 13.22125  13.575625 13.549375  L 13.549375 13.575625  Z " fill-rule="nonzero" fill="#999999" stroke="none" transform="matrix(1 0 0 1 26 23 )" />
  </g>
</svg>