<?xml version="1.0" encoding="utf-8"?>
<svg version="1.1" xmlns:xlink="http://www.w3.org/1999/xlink" width="17px" height="17px" xmlns="http://www.w3.org/2000/svg">
  <g transform="matrix(1 0 0 1 -434 -22 )">
    <path d="M 17 8.5  C 17 3.81286693303571  13.1871330669643 0  8.5 0  C 3.81345441964286 0  0 3.81286693303571  0 8.5  C 0 13.1871330669643  3.81286693303571 17  8.5 17  C 13.1865455803571 17  17 13.1871330669643  17 8.5  Z M 9.36032983370536 8.5024151953125  L 11.9673968604911 11.1180006450893  C 12.204183390625 11.3559947633929  12.2035632700893 11.7397162399554  11.9661892723214 11.9765027700893  C 11.8478123337054 12.0942922410714  11.6929790658482 12.1537907611607  11.5375583303571 12.1537907611607  C 11.3815174743304 12.1537907611607  11.2260967388393 12.0942922220982  11.1076871473214 11.9752951629464  L 8.496964703125 9.35667439732143  L 5.87775645089286 11.9479774151786  C 5.75937951227679 12.0645592790179  5.60513373102679 12.1234376975446  5.45092058370536 12.1234376975446  C 5.29429224107143 12.1234376975446  5.13825140401786 12.0633190569196  5.01925432589286 11.943114390625  C 4.78367538392857 11.7045001517857  4.78550309263393 11.3207786752232  5.02411735044643 11.084612265625  L 7.64029028683036 8.49696468415178  L 5.03381074665179 5.8819993359375  C 4.79702421651786 5.64459268526786  4.79764433705357 5.26028374107143  5.03501833482143 5.0234972109375  C 5.27242498549107 4.78609056026786  5.65611380915179 4.78733080133928  5.89352045982143 5.02470479910714  L 8.50362278348214 7.64270544419643  L 11.1228310357143 5.05143506026786  C 11.3608251540179 4.81526865066964  11.74575421875 4.81768382700893  11.9813331607143 5.05629808482143  C 12.2174995703125 5.29491232366071  12.2150843939732 5.67922126785714  11.9764701361607 5.91480020982143  L 9.36032983370536 8.5024151953125  Z " fill-rule="nonzero" fill="#999999" stroke="none" fill-opacity="0.298039215686275" transform="matrix(1 0 0 1 434 22 )" />
  </g>
</svg>